<?xml version="1.0" encoding="utf-8"?>
<!-- Generator: Adobe Illustrator 16.0.0, SVG Export Plug-In . SVG Version: 6.00 Build 0)  -->
<!DOCTYPE svg PUBLIC "-//W3C//DTD SVG 1.1//EN" "http://www.w3.org/Graphics/SVG/1.1/DTD/svg11.dtd">
<svg version="1.1" id="Capa_1" xmlns="http://www.w3.org/2000/svg" xmlns:xlink="http://www.w3.org/1999/xlink" x="0px" y="0px"
	 width="800px" height="600px" viewBox="0 0 800 600" enable-background="new 0 0 800 600" xml:space="preserve">
<g id="tick">
	<g>
		<path fill="#FFFFFF" d="M528.138,192.844L353.125,367.856l-81.244-81.263c-7.144-7.144-18.75-7.144-25.894,0
			c-7.144,7.144-7.144,18.75,0,25.894l91.969,91.969c0.619,0.882,0.994,1.894,1.781,2.682c3.694,3.693,8.55,5.399,13.388,5.269
			c4.837,0.112,9.712-1.575,13.406-5.269c0.788-0.788,1.163-1.8,1.781-2.682l185.719-185.719c7.144-7.144,7.144-18.75,0-25.894
			C546.869,185.7,535.281,185.7,528.138,192.844z M400,0C234.306,0,100,134.306,100,300c0,165.693,134.306,300,300,300
			c165.675,0,300-134.307,300-300C700,134.306,565.693,0,400,0z M400,562.5c-144.975,0-262.5-117.525-262.5-262.5
			c0-144.975,117.525-262.5,262.5-262.5c144.975,0,262.5,117.525,262.5,262.5C662.5,444.975,544.975,562.5,400,562.5z"/>
	</g>
</g>
</svg>
