<?xml version="1.0" encoding="utf-8"?>
<!-- Generator: Adobe Illustrator 16.0.0, SVG Export Plug-In . SVG Version: 6.00 Build 0)  -->
<!DOCTYPE svg PUBLIC "-//W3C//DTD SVG 1.1//EN" "http://www.w3.org/Graphics/SVG/1.1/DTD/svg11.dtd">
<svg version="1.1" id="Capa_1" xmlns="http://www.w3.org/2000/svg" xmlns:xlink="http://www.w3.org/1999/xlink" x="0px" y="0px"
	 width="800px" height="600px" viewBox="0 0 800 600" enable-background="new 0 0 800 600" xml:space="preserve">
<path fill="#FFFFFF" d="M720.302,90.669v-0.782h-4.331H529.503h-153.35V47.702c0-13.011-4.828-23.952-14.196-33.506
	C352.79,4.827,341.461,0,328.451,0H84.038C70.632,0,59.304,4.827,50.137,14.196c-8.974,9.159-13.801,20.495-13.801,33.506v42.185
	v43.362v419.049c0,13.011,4.634,24.541,13.801,33.901C59.102,595.366,70.632,600,84.038,600h631.933
	c13.397,0,24.928-4.634,33.901-13.801c9.167-9.369,13.792-20.891,13.792-33.901V381.212v-19.318v-124.57V137.185v-3.936
	C763.664,110.719,743.564,92.25,720.302,90.669z M80.093,47.702c0-2.759,1.186-3.944,3.944-3.944h244.414
	c1.581,0,4.34,2.363,4.34,3.944v42.185H80.093V47.702z M720.302,137.185v100.13v124.57v19.317v171.095
	c0,1.581-2.363,3.944-4.331,3.944H84.038c-2.758,0-3.944-1.186-3.944-3.944V133.249h640.208V137.185z"/>
</svg>
