<?xml version="1.0" encoding="utf-8"?>
<!-- Generator: Adobe Illustrator 16.0.0, SVG Export Plug-In . SVG Version: 6.00 Build 0)  -->
<!DOCTYPE svg PUBLIC "-//W3C//DTD SVG 1.1//EN" "http://www.w3.org/Graphics/SVG/1.1/DTD/svg11.dtd">
<svg version="1.1" id="Capa_1" xmlns="http://www.w3.org/2000/svg" xmlns:xlink="http://www.w3.org/1999/xlink" x="0px" y="0px"
	 width="800px" height="600px" viewBox="0 0 800 600" enable-background="new 0 0 800 600" xml:space="preserve">
<g id="Shape_9">
	<g>
		<path fill="#FFFFFF" d="M400,0C238,0,106.196,131.021,106.196,292.053c0,81.795,34.641,159.894,95.241,215.179v80.522
			c0,4.359,2.327,8.388,6.123,10.58c1.91,1.114,4.053,1.665,6.196,1.665c2.094,0,4.188-0.539,6.074-1.592l66.073-37.225
			c36.221,15.221,74.584,22.923,114.098,22.923c162.013,0,293.804-131.021,293.804-292.065C693.804,131.021,562.013,0,400,0z
			 M400,559.629c-38.131,0-75.073-7.837-109.8-23.278c-3.563-1.579-7.702-1.396-11.106,0.527l-53.033,29.877v-64.959
			c0-3.515-1.518-6.857-4.163-9.172c-57.882-50.828-91.09-123.931-91.09-200.559C130.833,144.514,251.58,24.49,400,24.49
			c148.421,0,269.167,120.024,269.167,267.563C669.167,439.592,548.421,559.629,400,559.629z M293.481,256.334
			c-24.343,0-44.143,19.678-44.143,43.874c0,24.196,19.8,43.874,44.143,43.874c24.343,0,44.143-19.678,44.143-43.874
			C337.625,276.012,317.825,256.334,293.481,256.334z M293.481,319.604c-10.751,0-19.506-8.694-19.506-19.384
			c0-10.69,8.755-19.384,19.506-19.384s19.506,8.694,19.506,19.384C312.988,310.91,304.245,319.604,293.481,319.604z
			 M404.334,256.334c-24.342,0-44.142,19.678-44.142,43.874c0,24.196,19.8,43.874,44.142,43.874
			c24.344,0,44.144-19.678,44.144-43.874C448.478,276.012,428.678,256.334,404.334,256.334z M404.334,319.604
			c-10.75,0-19.505-8.694-19.505-19.384c0-10.69,8.755-19.384,19.505-19.384c10.752,0,19.507,8.694,19.507,19.384
			C423.841,310.91,415.098,319.604,404.334,319.604z M515.188,256.334c-24.33,0-44.13,19.678-44.13,43.874
			c0,24.196,19.8,43.874,44.13,43.874c24.343,0,44.144-19.678,44.144-43.874C559.331,276.012,539.53,256.334,515.188,256.334z
			 M515.188,319.604c-10.751,0-19.493-8.694-19.493-19.384c0-10.69,8.742-19.384,19.493-19.384s19.507,8.694,19.507,19.384
			C534.694,310.91,525.938,319.604,515.188,319.604z"/>
	</g>
</g>
</svg>
